HIERARCHY
ROOT joint_0
{
	OFFSET 0.000000 0.000000 0.000000
	CHANNELS 6 Xposition Yposition Zposition Zrotation Yrotation Xrotation 
	JOINT joint_1
	{
		OFFSET 6.590088 -1.122192 114.019043
		CHANNELS 3 Zrotation Yrotation Xrotation
		JOINT joint_2
		{
			OFFSET -5.956055 -0.820435 104.151001
			CHANNELS 3 Zrotation Yrotation Xrotation
			JOINT joint_3
			{
				OFFSET -7.343506 -1.103027 103.942993
				CHANNELS 3 Zrotation Yrotation Xrotation
				JOINT joint_4
				{
					OFFSET 3.109131 -2.857056 147.715942
					CHANNELS 3 Zrotation Yrotation Xrotation
					JOINT joint_5
					{
						OFFSET 28.592285 -2.852295 87.703979
						CHANNELS 3 Zrotation Yrotation Xrotation
						End Site
						{
							OFFSET 0.000000 0.000000 0.000000
						}
					}
				}
				JOINT joint_6
				{
					OFFSET -0.332520 -33.687378 82.401978
					CHANNELS 3 Zrotation Yrotation Xrotation
					JOINT joint_7
					{
						OFFSET -7.397461 -168.719177 -22.750977
						CHANNELS 3 Zrotation Yrotation Xrotation
						JOINT joint_8
						{
							OFFSET 17.065918 -24.903137 -272.721069
							CHANNELS 3 Zrotation Yrotation Xrotation
							JOINT joint_9
							{
								OFFSET 33.311279 -37.031616 -278.192993
								CHANNELS 3 Zrotation Yrotation Xrotation
								End Site
								{
									OFFSET 0.000000 0.000000 0.000000
								}
							}
						}
					}
				}
				JOINT joint_10
				{
					OFFSET 3.914307 30.461670 83.552979
					CHANNELS 3 Zrotation Yrotation Xrotation
					JOINT joint_11
					{
						OFFSET 15.543701 166.845459 -30.963013
						CHANNELS 3 Zrotation Yrotation Xrotation
						JOINT joint_12
						{
							OFFSET 35.734863 35.017700 -269.786011
							CHANNELS 3 Zrotation Yrotation Xrotation
							JOINT joint_13
							{
								OFFSET 70.506592 13.977783 -273.320007
								CHANNELS 3 Zrotation Yrotation Xrotation
								End Site
								{
									OFFSET 0.000000 0.000000 0.000000
								}
							}
						}
					}
				}
			}
		}
	}
	JOINT joint_14
	{
		OFFSET -0.314697 -95.093994 -116.004028
		CHANNELS 3 Zrotation Yrotation Xrotation
		JOINT joint_15
		{
			OFFSET -22.490723 2.017883 -455.510986
			CHANNELS 3 Zrotation Yrotation Xrotation
			JOINT joint_16
			{
				OFFSET -46.427490 7.144104 -496.360985
				CHANNELS 3 Zrotation Yrotation Xrotation
				JOINT joint_17
				{
					OFFSET 209.055420 -37.122803 -85.191002
					CHANNELS 3 Zrotation Yrotation Xrotation
					End Site
					{
						OFFSET 0.000000 0.000000 0.000000
					}
				}
			}
		}
	}
	JOINT joint_18
	{
		OFFSET 5.652832 94.642578 -116.244019
		CHANNELS 3 Zrotation Yrotation Xrotation
		JOINT joint_19
		{
			OFFSET -12.379883 -7.332642 -455.843994
			CHANNELS 3 Zrotation Yrotation Xrotation
			JOINT joint_20
			{
				OFFSET -45.227051 -8.172241 -496.457985
				CHANNELS 3 Zrotation Yrotation Xrotation
				JOINT joint_21
				{
					OFFSET 210.522949 -11.530396 -88.809004
					CHANNELS 3 Zrotation Yrotation Xrotation
					End Site
					{
						OFFSET 0.000000 0.000000 0.000000
					}
				}
			}
		}
	}
}
MOTION
Frames: 13
Frame Time: 0.016667
-2120.143311 966.074585 1149.623047 -1.941268 8.388192 0.724034 4.635305 9.909926 -0.990697 0.943990 -1.868528 0.240118 0.296622 1.690883 -0.272977 -0.010311 -11.147147 0.123881 0.000000 0.000000 0.000000 -0.391455 -5.023995 -2.685559 -7.511141 -1.942536 -10.658832 -176.235971 -89.035329 -145.377003 0.000000 0.000000 0.000000 4.801354 -4.527600 3.846789 8.712415 -4.428475 5.493043 173.956558 -88.760650 167.995890 0.000000 0.000000 0.000000 1.197787 -43.841777 -14.298662 9.365104 64.863961 11.029624 19.435702 10.576373 8.830442 0.000000 0.000000 0.000000 -1.670742 -28.486775 6.854871 3.382337 20.867771 6.089924 5.837573 -1.143551 2.129356 0.000000 0.000000 0.000000 
-2106.435547 968.786499 1143.343994 -2.697093 8.160973 1.857965 5.245536 10.985207 -1.497841 0.965939 -2.045464 0.295621 0.204052 1.847984 -0.336081 0.064505 -11.548401 -0.060313 0.000000 0.000000 0.000000 -0.409953 -5.463509 -2.651703 -7.407931 -2.240975 -10.599894 -175.849494 -86.141752 -146.169974 0.000000 0.000000 0.000000 4.758853 -5.257760 3.862242 9.132903 -4.824484 5.177081 174.210737 -88.364254 167.883155 0.000000 0.000000 0.000000 1.745331 -46.295486 -16.574673 10.184818 62.827022 10.719063 18.390764 8.186724 8.107475 0.000000 0.000000 0.000000 -1.409755 -28.678738 6.490155 3.622891 23.363648 4.614723 6.084864 -2.825160 2.127419 0.000000 0.000000 0.000000 
-2093.671143 970.315796 1139.519043 -2.784397 8.011137 3.422229 5.568072 12.146446 -2.210983 0.889358 -2.188876 0.362466 0.069194 1.970621 -0.413616 0.224145 -11.955867 -0.475436 0.000000 0.000000 0.000000 -0.716418 -5.993492 -2.448653 -7.220227 -2.616005 -10.567086 -175.355624 -83.317315 -146.891032 0.000000 0.000000 0.000000 4.875327 -6.190643 3.788154 9.140889 -5.406686 4.170274 174.154887 -88.566386 168.089877 0.000000 0.000000 0.000000 2.241023 -48.060497 -19.094813 10.475737 58.322023 9.842574 16.541424 6.980917 7.309113 0.000000 0.000000 0.000000 -1.213644 -28.999591 6.040820 3.582189 25.820392 2.347778 5.845430 -3.556238 1.993863 0.000000 0.000000 0.000000 
-2081.354004 970.420654 1136.488037 -2.631483 8.004844 4.563362 5.607371 13.070214 -2.464873 0.883522 -2.293178 0.356389 0.085783 2.043984 -0.448714 0.396375 -12.168045 -0.890797 0.000000 0.000000 0.000000 -1.138344 -6.581998 -2.435736 -7.196289 -2.985418 -10.648955 -175.026140 -80.771854 -146.957701 0.000000 0.000000 0.000000 4.961073 -7.028425 3.563238 9.153125 -5.998693 3.319588 174.117729 -88.608592 168.424495 0.000000 0.000000 0.000000 2.761990 -48.790276 -20.849095 10.398983 52.295285 8.935217 15.002419 7.294887 6.857422 0.000000 0.000000 0.000000 -0.997340 -29.596085 5.891295 3.378282 28.250091 0.446288 5.445464 -3.837535 1.819685 0.000000 0.000000 0.000000 
-2069.665039 969.274780 1134.239014 -2.684503 8.484868 4.775194 5.451723 13.374701 -1.841838 1.165209 -2.321568 0.248485 0.498765 2.176182 -0.416780 0.609538 -12.118033 -1.334522 0.000000 0.000000 0.000000 -1.744767 -7.310215 -2.801286 -7.562448 -3.357618 -11.015276 -175.025086 -78.283548 -145.870482 0.000000 0.000000 0.000000 4.916988 -7.705910 3.000559 9.356896 -6.604357 2.954206 174.219118 -88.060454 168.896932 0.000000 0.000000 0.000000 3.593554 -48.347415 -21.261026 10.313007 44.095060 8.058236 14.183420 9.308610 6.953958 0.000000 0.000000 0.000000 -0.532968 -30.759376 6.165182 3.165471 30.578910 -0.300047 5.182023 -3.987272 1.702269 0.000000 0.000000 0.000000 
-2058.423340 966.703491 1132.784058 -2.336532 9.023757 4.629624 5.009680 13.610723 -0.806391 1.478273 -2.417753 0.090675 0.988540 2.284303 -0.336381 0.834217 -11.876964 -1.758553 0.000000 0.000000 0.000000 -2.469884 -8.120725 -3.342869 -8.197652 -3.728848 -11.495899 -175.267128 -75.893411 -144.076533 0.000000 0.000000 0.000000 4.844289 -8.303816 2.276174 9.564056 -7.239091 2.740926 174.329904 -87.388537 169.491710 0.000000 0.000000 0.000000 4.463112 -46.392058 -21.047969 10.256848 33.948576 6.656894 13.431716 13.032897 7.414773 0.000000 0.000000 0.000000 -0.047507 -32.199436 6.561554 2.736318 32.959738 -0.554167 4.784291 -3.786441 1.549238 0.000000 0.000000 0.000000 
-2046.586792 961.947327 1130.501953 -0.992362 8.965341 4.819319 4.151551 14.124526 -0.238539 1.492795 -2.682978 0.016761 1.149376 2.290964 -0.238880 0.902887 -11.565045 -1.826622 0.000000 0.000000 0.000000 -2.940986 -8.775785 -3.727639 -8.835442 -4.029782 -11.785482 -175.647970 -74.231750 -142.413695 0.000000 0.000000 0.000000 4.842891 -8.815102 1.781938 9.661141 -7.797135 2.634992 174.378443 -87.180581 169.942005 0.000000 0.000000 0.000000 4.859746 -43.716103 -20.925074 9.940010 25.850100 4.728455 12.274449 16.252124 7.619083 0.000000 0.000000 0.000000 -0.006517 -33.542182 7.061836 1.851482 35.820466 -1.442765 3.863524 -3.026223 1.219339 0.000000 0.000000 0.000000 
-2033.173096 953.723633 1126.433960 0.805260 8.556836 5.384659 2.876364 13.947094 -0.646218 1.414583 -2.750667 0.029269 1.252222 2.297883 -0.137901 0.683020 -11.190481 -1.241221 0.000000 0.000000 0.000000 -2.971764 -9.178707 -3.676396 -9.423140 -4.256194 -11.883291 -176.195216 -73.666301 -141.034532 0.000000 0.000000 0.000000 5.014912 -9.303537 1.567991 9.597898 -8.339032 2.801727 174.293007 -87.769985 170.087636 0.000000 0.000000 0.000000 4.932118 -41.696101 -20.471700 8.870436 22.447856 2.348702 10.427082 16.108581 6.885612 0.000000 0.000000 0.000000 -0.361485 -35.182941 8.424741 0.383491 39.594153 -4.025427 1.952806 -1.255398 0.560625 0.000000 0.000000 0.000000 
-2019.163574 943.316223 1121.537964 2.469917 8.022598 5.818948 1.539198 13.233137 -1.297057 1.415470 -2.632692 -0.020674 1.475683 2.281703 -0.047421 0.323295 -10.786593 -0.322075 0.000000 0.000000 0.000000 -2.759016 -9.420767 -3.361762 -10.017007 -4.424219 -11.940638 -176.875585 -73.896582 -139.721647 0.000000 0.000000 0.000000 5.236424 -9.731412 1.554624 9.435467 -8.823074 3.095944 174.125422 -88.815307 170.068671 0.000000 0.000000 0.000000 5.009636 -40.261475 -19.423928 7.400133 21.997075 -0.064603 8.335364 13.617471 5.614583 0.000000 0.000000 0.000000 -0.767755 -37.053041 10.589195 -1.402453 43.676038 -7.388359 -0.563883 1.564063 -0.275349 0.000000 0.000000 0.000000 
-2006.465698 933.807007 1117.062988 3.882940 7.354691 5.903682 0.487776 12.759384 -1.562972 1.394570 -2.545111 -0.075590 1.636942 2.205529 -0.000269 0.074899 -10.603450 0.295059 0.000000 0.000000 0.000000 -2.492991 -9.536682 -3.072998 -10.422458 -4.520363 -11.953294 -177.427838 -74.670266 -138.832881 0.000000 0.000000 0.000000 5.269733 -9.956191 1.810095 9.251055 -9.043343 3.144201 173.991829 -89.837299 170.069190 0.000000 0.000000 0.000000 4.997535 -39.433582 -18.587272 6.112621 23.033794 -1.354007 6.756590 11.083353 4.546256 0.000000 0.000000 0.000000 -1.086372 -38.706178 12.586842 -2.856221 47.208739 -9.880701 -2.393362 4.502071 -0.854259 0.000000 0.000000 0.000000 
-1996.125000 926.052612 1113.124023 5.288202 6.724050 5.494889 -0.280932 12.354157 -1.183550 1.260888 -2.364672 -0.022448 1.589332 2.117430 -0.024517 0.055992 -10.898023 0.244519 0.000000 0.000000 0.000000 -2.177383 -9.520971 -2.926282 -10.573314 -4.512885 -11.949445 -177.788836 -75.986496 -138.514051 0.000000 0.000000 0.000000 4.898807 -9.873210 2.482243 9.088877 -8.849627 2.773229 -6.030920 -89.375372 -9.825813 0.000000 0.000000 0.000000 4.822654 -39.764141 -18.571410 5.144831 26.081203 -0.649520 6.036876 9.058433 3.908460 0.000000 0.000000 0.000000 -1.431446 -40.588530 14.142195 -3.783599 50.688080 -10.912060 -2.806746 7.191799 -0.949012 0.000000 0.000000 0.000000 
-1987.095947 919.197449 1109.607056 6.700814 6.060679 4.844680 -0.875232 12.013512 -0.545196 1.042780 -2.146628 0.100013 1.377471 1.990259 -0.089807 0.131614 -11.417724 -0.118769 0.000000 0.000000 0.000000 -1.812270 -9.364627 -2.826367 -10.478796 -4.427892 -11.869006 -177.974800 -77.853129 -138.731746 0.000000 0.000000 0.000000 4.337182 -9.582182 3.407413 8.910224 -8.397240 2.192073 -6.009034 -88.637894 -9.696755 0.000000 0.000000 0.000000 4.492585 -40.610924 -19.071169 4.341703 30.536421 1.250006 5.857756 7.165543 3.502143 0.000000 0.000000 0.000000 -1.841805 -42.431816 15.385457 -4.341544 53.785197 -11.077291 -2.119540 9.578308 -0.689344 0.000000 0.000000 0.000000 
-1978.141357 913.757690 1107.407959 7.646862 5.428739 4.418299 -1.187464 11.865140 -0.144906 0.858667 -2.065281 0.195557 1.168256 1.883226 -0.129422 0.169861 -11.707441 -0.345557 0.000000 0.000000 0.000000 -1.561495 -9.127263 -2.715832 -10.055269 -4.376215 -11.592957 -177.835645 -79.996897 -139.600757 0.000000 0.000000 0.000000 4.014352 -9.265371 4.076445 8.683820 -7.996118 1.713661 -6.041057 -87.858658 -9.609022 0.000000 0.000000 0.000000 4.154117 -40.846125 -19.573638 3.823177 33.694396 2.911904 5.874252 5.796759 3.261401 0.000000 0.000000 0.000000 -2.001960 -43.231474 16.019890 -4.279032 54.881263 -10.786806 -0.665868 10.400142 -0.195924 0.000000 0.000000 0.000000 
